<?xml version="1.0" encoding="UTF-8" standalone="no"?>
<svg xmlns="http://www.w3.org/2000/svg" height="85" width="250">
<path style="fill:#a7a9ac;" d="M 35.39928,21.96058 C 17.79721,21.96058 6.25,34.78563 6.25,49.83982 c 0,14.73756 11.22682,27.88154 28.99139,27.88154 18.40141,0 29.39415,-13.2232 29.39415,-27.88154 0,-15.13196 -11.31125,-27.87924 -29.23626,-27.87924 z m 109.56271,0 c -17.28545,0 -29.79003,12.10617 -29.79003,28.6756 0,11.39178 8.92095,27.08518 29.31405,27.08518 8.52153,0 14.33497,-1.99292 19.67314,-4.78041 l 0,-8.52419 c -6.13475,3.98403 -12.82082,6.13283 -18.95688,6.13283 -13.06679,0 -21.98669,-8.4422 -21.98669,-20.62967 0,-11.94787 9.23998,-20.79215 21.66632,-20.79215 6.29379,0 12.02961,1.75263 18.72118,5.65685 l 0,-8.364 c -7.41184,-3.10355 -13.06405,-4.46004 -18.64109,-4.46004 z m -71.5208,0.71626 0,54.32597 7.80335,0 0,-23.5771 3.2678,0 c 3.98053,0 7.24694,1.27516 14.41903,12.42586 l 7.1649,11.15124 9.31825,0 c -3.73888,-5.17561 -5.09687,-7.00782 -7.40517,-10.75078 -4.14088,-6.773 -7.16812,-11.7925 -12.10779,-15.05978 5.81386,-2.30697 9.08027,-7.00599 9.08027,-13.29773 0,-9.40145 -6.84931,-15.21768 -17.84244,-15.21768 l -13.6982,0 z m -38.04191,6.45093 c 12.18889,0 21.19262,8.76551 21.19262,20.71205 0,11.86806 -9.00373,20.70977 -21.19262,20.70977 -12.10763,0 -21.10566,-8.84171 -21.10566,-20.70977 0,-11.94654 8.99803,-20.71205 21.10566,-20.71205 z m 45.84526,0.24256 5.0184,0 c 7.5687,0 10.59465,3.10657 10.67526,8.20382 0.0792,4.54027 -2.31072,8.83998 -10.67526,8.83998 l -5.0184,0 0,-17.0438 z"/>
<path style="fill:#a6ce39;" d="m 178.94433,6.25091 c -2.814,0 -5.11681,2.30368 -5.11681,5.11679 0,2.81459 2.30281,5.11909 5.11681,5.11909 2.81238,0 5.11909,-2.3045 5.11909,-5.11909 0,-2.81311 -2.30671,-5.11679 -5.11909,-5.11679 z m -3.90396,16.42593 0,54.32597 7.80564,0 0,-54.32597 -7.80564,0 z m 18.69142,0 0,54.32597 21.18347,0 c 17.92633,-1e-5 28.83578,-13.22332 28.83578,-27.16299 0,-12.8244 -8.84114,-27.16298 -28.9113,-27.16298 l -21.10795,0 z m 7.80564,7.01157 12.02769,0 c 15.21121,0 22.14458,9.23752 22.14458,20.15141 0,6.69098 -4.06664,20.1537 -21.74869,20.1537 l -12.42358,0 0,-40.30511 z"/>
</svg>
