<?xml version="1.0" encoding="UTF-8" standalone="no"?>
<!-- Created with Inkscape (http://www.inkscape.org/) -->

<svg
   xmlns:dc="http://purl.org/dc/elements/1.1/"
   xmlns:cc="http://creativecommons.org/ns#"
   xmlns:rdf="http://www.w3.org/1999/02/22-rdf-syntax-ns#"
   xmlns:svg="http://www.w3.org/2000/svg"
   xmlns="http://www.w3.org/2000/svg"
   xmlns:sodipodi="http://sodipodi.sourceforge.net/DTD/sodipodi-0.dtd"
   xmlns:inkscape="http://www.inkscape.org/namespaces/inkscape"
   width="252.38821"
   height="100.22247"
   id="svg2"
   version="1.1"
   inkscape:version="0.48.2 r9819"
   sodipodi:docname="bulge.svg">
  <defs
     id="defs4" />
  <sodipodi:namedview
     id="base"
     pagecolor="#ffffff"
     bordercolor="#666666"
     borderopacity="1.0"
     inkscape:pageopacity="0.0"
     inkscape:pageshadow="2"
     inkscape:zoom="0.7"
     inkscape:cx="193.74587"
     inkscape:cy="-54.535018"
     inkscape:document-units="px"
     inkscape:current-layer="layer1"
     showgrid="false"
     fit-margin-top="0"
     fit-margin-left="0"
     fit-margin-right="0"
     fit-margin-bottom="0"
     inkscape:window-width="1280"
     inkscape:window-height="1000"
     inkscape:window-x="0"
     inkscape:window-y="24"
     inkscape:window-maximized="1" />
  <metadata
     id="metadata7">
    <rdf:RDF>
      <cc:Work
         rdf:about="">
        <dc:format>image/svg+xml</dc:format>
        <dc:type
           rdf:resource="http://purl.org/dc/dcmitype/StillImage" />
        <dc:title />
      </cc:Work>
    </rdf:RDF>
  </metadata>
  <g
     inkscape:label="Ebene 1"
     inkscape:groupmode="layer"
     id="layer1"
     transform="translate(-102.60858,-158.85567)">
    <path
       style="fill:none;stroke:#000000;stroke-width:4.24624109px;stroke-linecap:butt;stroke-linejoin:miter;stroke-opacity:1"
       d="m 106.85594,237.87983 c 0,0 64.22102,27.92972 93.57473,16.09511 32.81845,-13.2315 31.70378,-68.79364 62.88248,-85.52717 25.71062,-13.79883 87.43627,-4.22935 87.43627,-4.22935"
       id="path2985"
       inkscape:connector-curvature="0"
       sodipodi:nodetypes="cssc" />
    <path
       sodipodi:nodetypes="cssc"
       inkscape:connector-curvature="0"
       id="path2987"
       d="M 106.85594,237.87983 350.74942,164.21842"
       style="fill:none;stroke:#000000;stroke-width:2.12312055;stroke-linecap:butt;stroke-linejoin:miter;stroke-miterlimit:4;stroke-opacity:1;stroke-dasharray:none" />
    <path
       style="fill:none;stroke:#000000;stroke-width:2.12312055;stroke-linecap:butt;stroke-linejoin:miter;stroke-miterlimit:4;stroke-opacity:1;stroke-dasharray:none"
       d="m 188.15377,213.32603 12.2769,40.64891"
       id="path2989"
       inkscape:connector-curvature="0"
       sodipodi:nodetypes="cssc" />
    <path
       sodipodi:nodetypes="cssc"
       inkscape:connector-curvature="0"
       id="path2991"
       d="m 269.4516,188.77222 -6.13845,-20.32445"
       style="fill:none;stroke:#000000;stroke-width:2.12312055;stroke-linecap:butt;stroke-linejoin:miter;stroke-miterlimit:4;stroke-opacity:1;stroke-dasharray:none" />
    <circle
       id="circle2993"
       r="10"
       cx="0"
       cy="100"
       sodipodi:cx="0"
       sodipodi:cy="100"
       sodipodi:rx="10"
       sodipodi:ry="10"
       style="fill:#ff0000"
       transform="matrix(0.40648914,-0.12276901,0.12276901,0.40648914,94.579041,197.23092)"
       d="m 10,100 c 0,5.52285 -4.4771525,10 -10,10 -5.5228475,0 -10,-4.47715 -10,-10 0,-5.522847 4.4771525,-10 10,-10 5.5228475,0 10,4.477153 10,10 z" />
    <circle
       style="fill:#ff0000"
       sodipodi:ry="10"
       sodipodi:rx="10"
       sodipodi:cy="100"
       sodipodi:cx="200"
       cy="100"
       cx="200"
       r="10"
       id="circle2995"
       transform="matrix(0.40648914,-0.12276901,0.12276901,0.40648914,94.579041,197.23092)"
       d="m 210,100 c 0,5.52285 -4.47715,10 -10,10 -5.52285,0 -10,-4.47715 -10,-10 0,-5.522847 4.47715,-10 10,-10 5.52285,0 10,4.477153 10,10 z" />
    <circle
       id="circle3003"
       r="10"
       cx="200"
       cy="200"
       sodipodi:cx="200"
       sodipodi:cy="200"
       sodipodi:rx="10"
       sodipodi:ry="10"
       style="fill:#ff0000"
       transform="matrix(0.40648914,-0.12276901,0.12276901,0.40648914,94.579041,197.23092)"
       d="m 210,200 c 0,5.52285 -4.47715,10 -10,10 -5.52285,0 -10,-4.47715 -10,-10 0,-5.52285 4.47715,-10 10,-10 5.52285,0 10,4.47715 10,10 z" />
    <circle
       id="circle2997"
       r="10"
       cx="400"
       cy="100"
       sodipodi:cx="400"
       sodipodi:cy="100"
       sodipodi:rx="10"
       sodipodi:ry="10"
       style="fill:#ff0000"
       transform="matrix(0.40648914,-0.12276901,0.12276901,0.40648914,94.579041,197.23092)"
       d="m 410,100 c 0,5.52285 -4.47715,10 -10,10 -5.52285,0 -10,-4.47715 -10,-10 0,-5.522847 4.47715,-10 10,-10 5.52285,0 10,4.477153 10,10 z" />
    <circle
       style="fill:#ff0000"
       sodipodi:ry="10"
       sodipodi:rx="10"
       sodipodi:cy="100"
       sodipodi:cx="600"
       cy="100"
       cx="600"
       r="10"
       id="circle2999"
       transform="matrix(0.40648914,-0.12276901,0.12276901,0.40648914,94.579041,197.23092)"
       d="m 610,100 c 0,5.52285 -4.47715,10 -10,10 -5.52285,0 -10,-4.47715 -10,-10 0,-5.522847 4.47715,-10 10,-10 5.52285,0 10,4.477153 10,10 z" />
    <circle
       id="circle3001"
       r="10"
       cx="400"
       cy="50"
       sodipodi:cx="400"
       sodipodi:cy="50"
       sodipodi:rx="10"
       sodipodi:ry="10"
       style="fill:#ff0000"
       transform="matrix(0.40648914,-0.12276901,0.12276901,0.40648914,94.579041,197.23092)"
       d="m 410,50 c 0,5.522847 -4.47715,10 -10,10 -5.52285,0 -10,-4.477153 -10,-10 0,-5.522847 4.47715,-10 10,-10 5.52285,0 10,4.477153 10,10 z" />
    <text
       xml:space="preserve"
       style="font-size:16.98496437px;font-style:normal;font-weight:normal;line-height:125%;letter-spacing:0px;word-spacing:0px;fill:#000000;fill-opacity:1;stroke:none;font-family:Sans"
       x="178.43431"
       y="239.67633"
       id="text2992"
       sodipodi:linespacing="125%"><tspan
         sodipodi:role="line"
         id="tspan2994"
         x="178.43431"
         y="239.67633">2</tspan></text>
    <text
       xml:space="preserve"
       style="font-size:16.98496437px;font-style:normal;font-weight:normal;line-height:125%;letter-spacing:0px;word-spacing:0px;fill:#000000;fill-opacity:1;stroke:none;font-family:Sans"
       x="269.4252"
       y="181.44218"
       id="text2996"
       sodipodi:linespacing="125%"><tspan
         sodipodi:role="line"
         id="tspan2998"
         x="269.4252"
         y="181.44218">1</tspan></text>
  </g>
</svg>
