<?xml version="1.0" encoding="UTF-8"?>
<svg xmlns:svg="http://www.w3.org/2000/svg" xmlns="http://www.w3.org/2000/svg"
     xmlns:xlink="http://www.w3.org/1999/xlink"
     width="164.72187886279357"
     height="210">
   <defs>
      
      <defs>
                <g transform="scale(1,-1)" stroke="currentColor" fill="none" stroke-width=".4"
            id="clefA">
                  <path d="M1.2 4 C0,4.1 0.2,5.8 1.1 6.6"/>
                  <path d="M1.1 6.6 C2.1,7.5 3.1,6.9 3 5.3"/>
                  <path d="M3 5.3 C2.9,2.7 0.6,2.2 0.6 -0.1"/>
                  <path d="M0.6 -0.1 C0.67,-1.4 2.2,-1.4 2.4 0.23"/>
                  <path d="M2.4 0.23 C2.6,1.53 1.3,1.43 0.8 0.81"/>
                </g>
                <g transform="scale(1,-1)" stroke="currentColor" fill="none" stroke-width=".4"
            id="clefB">
                  <path d="M2.5 1.3 C1.8,1.4 1,0.72 0.7 -0.2"/>
                  <path d="M0.7 -0.2 C0.43,-0.96 0.75,-2 2 -0.74"/>
                  <path d="M2 -0.74 C3.4,1.06 2,3.36 1.6 4.36"/>
                  <path d="M1.6 4.36 C0.71,6.56 2.4,7.66 3.5 6.06"/>
                  <path d="M3.5 6.06 C4.3,4.86 3.7,2.66 3.7 2.66"/>
                </g>
              </defs>
   </defs>
   
   
   <g class="page">
      <rect stroke="black" fill="#fffffc" x="0" width="164.72187886279357" y="0"
            height="210"/>
      <g class="group body" id="_mei1_music1_body1">
         <g class="group mdiv" id="_mei1_music1_body1_mdiv1">
            <g class="system">
              <g class="staff">
                  <g class="stafflines" stroke="currentColor">
                     <line x1="24.72187886279357" x2="104.72187886279357" y1="50" y2="50"/>
                     <line x1="24.72187886279357" x2="104.72187886279357" y1="56" y2="56"/>
                     <line x1="24.72187886279357" x2="104.72187886279357" y1="62" y2="62"/>
                     <line x1="24.72187886279357" x2="104.72187886279357" y1="68" y2="68"/>
                     <line x1="24.72187886279357" x2="104.72187886279357" y1="74" y2="74"/>
                  </g>
                  <g class="group measure">
                     <g class="group layer"
                        id="_mei1_music1_body1_mdiv1_score1_section1_measure1_staff1_layer1">
                        <g class="svg" transform="translate(30.72187886279357,68) scale(3)">
                           <use xlink:href="#clefA"/>
                        </g>
                     </g>
                  </g>
              </g>
              <g class="staff">
                  <g class="stafflines" stroke="currentColor">
                     <line x1="24.72187886279357" x2="104.72187886279357" y1="90" y2="90"/>
                     <line x1="24.72187886279357" x2="104.72187886279357" y1="96" y2="96"/>
                     <line x1="24.72187886279357" x2="104.72187886279357" y1="102" y2="102"/>
                     <line x1="24.72187886279357" x2="104.72187886279357" y1="108" y2="108"/>
                     <line x1="24.72187886279357" x2="104.72187886279357" y1="114" y2="114"/>
                  </g>
                  <g class="group measure">
                     <g class="group layer"
                        id="_mei1_music1_body1_mdiv1_score1_section1_measure1_staff1_layer1">
                        <g class="svg" transform="translate(30.72187886279357,108) scale(3)">
                           <use xlink:href="#clefB"/>
                        </g>
                     </g>
                  </g>
              </g>
            </g>
        </g>
      </g>
   </g>
</svg>